<svg width="100" height="100" xmlns="http://www.w3.org/2000/svg">
 <!-- Created with SVG Editor - http://github.com/mzalive/SVG Editor/ -->

 <g>
  <title>background</title>
  <rect fill="#fff" id="canvas_background" height="102" width="102" y="-1" x="-1"/>
  <g display="none" overflow="visible" y="0" x="0" height="100%" width="100%" id="canvasGrid">
   <rect fill="url(#gridpattern)" stroke-width="0" y="0" x="0" height="100%" width="100%"/>
  </g>
 </g>
 <g>
  <title>Layer 1</title>
  <g id="svg_10">
   <g transform="matrix(0.7901234685638805,0,0,0.7901234685638805,0,0) " id="svg_4">
    <path id="svg_6" fill-rule="nonzero" fill="rgb(0.392157%,0.392157%,0.392157%)" d="m119.725096,115.147034c0,0.32422 0,0.61719 0,0.9375c0.0586,4.42578 -0.23437,4.48438 -4.57031,4.66016c-6.03516,0.26172 -12.04297,0.08984 -18.04688,0.14453c-10.72265,0.05859 -21.44531,0 -32.16796,0c-15.79297,0 -31.61329,-0.02735 -47.40235,0c-2.63672,0 -5.24609,-0.28906 -7.88281,0c-1.64063,0.17969 -2.95703,-0.99219 -2.8125,-2.54688c0.35156,-3.60547 -0.08594,-7.26562 1.02734,-10.8125c2.28516,-7.32031 5.97657,-13.5039 12.625,-17.83984c3.86719,-2.51953 8.32032,-3.39844 12.39453,-5.30078c2.10938,-1 4.42188,-1.35156 6.58985,-2.19922c1.4375,-0.58594 2.40234,0.49609 3.2539,1.37891c2.28516,2.37109 4.94922,4.21484 7.79297,5.85937c4.51172,2.63281 9.40235,3.48438 14.5586,3.21875c7.12109,-0.37891 12.98047,-3.42578 17.87109,-8.37891c1.84766,-1.84375 3.54688,-2.51953 6.09375,-1.49218c4.60156,1.84375 9.49219,2.98828 13.91797,5.15625c6.35547,3.10547 11.10156,8.02734 13.91406,14.67578c1.69922,4.04687 2.90235,8.14844 2.84375,12.53906zm0,0"/>
    <path id="svg_7" fill-rule="nonzero" fill="rgb(0%,0%,0%)" d="m57.408696,50.959534c-1.02344,-1.02344 -2.3125,-0.67578 -3.42579,-0.55469c-0.8789,-0.0625 -1.64062,-0.23828 -2.34375,-0.08984c-1.34765,0.29297 -2.48828,1.02344 -2.57812,2.51953c-0.08984,1.17188 1.69922,2.57813 2.92969,2.28516c1.26172,-0.29297 2.40234,-0.26172 3.66015,0c1.4375,0.32422 2.34375,-0.76172 2.90235,-1.90625c0.58593,-1.11328 -0.4961,-1.63672 -1.14453,-2.25391zm0,0"/>
    <path id="svg_8" fill-rule="nonzero" fill="rgb(0%,0%,0%)" d="m76.455566,50.959534c-1.02734,-1.02344 -2.31641,-0.67578 -3.42969,-0.55469c-0.8789,-0.0625 -1.64062,-0.23828 -2.34375,-0.08984c-1.34765,0.29297 -2.49218,1.02344 -2.57812,2.51953c-0.08985,1.17188 1.69922,2.57813 2.92969,2.28516c1.25781,-0.29297 2.40234,-0.26172 3.66406,0c1.43359,0.32422 2.34375,-0.76172 2.89844,-1.90625c0.58593,-1.11328 -0.5,-1.63672 -1.14063,-2.25391zm0,0"/>
    <path id="svg_9" fill-rule="nonzero" fill="rgb(0%,0%,0%)" d="m105.076656,70.264224c-0.73046,-0.84766 -1.40625,-1.78516 -1.90234,-2.78125c-4.16016,-7.9375 -6.47656,-16.34766 -6.85547,-25.3125c-0.29297,-6.50391 -1.3789,-12.92188 -5.07031,-18.42969c-6.44531,-9.66797 -15.46875,-15.05859 -27.24609,-15.52734c-6.5625,-0.29297 -10.89844,1.29297 -15.08594,3.37109c-10.72266,5.35938 -16.75781,14.21094 -18.16406,26.10156c-0.61719,5.33203 -0.61719,10.72266 -2.08204,15.96875c-1.66796,5.89063 -3.01562,11.89453 -7.23437,16.69922c-0.67578,0.76172 -0.87891,1.58203 -0.08984,2.3125c1.20312,1.08594 2.28515,2.28516 3.83984,2.96094c6.32812,2.69531 12.94922,4.27734 19.74609,5.01172c1.31641,0.14453 2.34375,0.64062 3.3086,1.51953c3.66406,3.22266 8,5.09766 12.83203,5.68359c6.62109,0.79297 12.30469,-1.55078 17.3164,-5.71093c0.76172,-0.64454 1.55079,-1.23047 2.60547,-1.34766c6.32813,-0.82031 12.57032,-2.02344 18.57422,-4.33594c2.08203,-0.79297 3.72266,-1.99219 5.33203,-3.37109c0.9961,-0.9375 1.08594,-1.78516 0.17578,-2.8125zm-14.0625,-12.59375c-0.29296,1.19922 -1.17187,1.875 -2.48828,1.84375c-1.96484,-0.0586 -2.875,1.08594 -3.33984,2.89844c-2.02344,7.79687 -5.97656,14.26953 -12.94922,18.57812c-2.84375,1.75781 -5.94922,2.89844 -9.43359,2.54688c-6.09375,-0.29297 -10.8711,-3.25 -14.67969,-7.85157c-2.69531,-3.25 -4.59766,-6.97265 -6.15234,-10.89843c-0.20313,-0.52735 -0.32032,-1.08594 -0.4375,-1.64063c-0.52735,-2.75391 -1.02735,-3.25 -3.86719,-3.66406c-1.61328,-0.23438 -2.14063,-1.4336 -2.375,-2.78125c-0.23438,-1.23047 -0.32031,-2.49219 -0.4375,-3.71875c-0.20703,-2.34375 0.64453,-3.95703 2.83984,-5.09766c6.38672,-3.33984 11.45703,-8.02734 14.32813,-14.79687c0.73047,-1.72657 1.55078,-1.84766 2.7539,-0.52735c3.86719,4.33594 8.75782,7.20703 13.71094,10.05078c5.03906,2.89844 10.39844,4.83204 15.99609,6.26954c1.40625,0.3789 2.8711,0.41015 4.30469,0.32031c1.99219,-0.08594 2.72656,1.02734 2.8711,2.69531c0.23437,1.96094 -0.20313,3.89844 -0.64454,5.77344zm0,0"/>
   </g>
  </g>
 </g>
</svg>