<svg width="100" height="100" xmlns="http://www.w3.org/2000/svg">
 <!-- Created with SVG Editor - http://github.com/mzalive/SVG Editor/ -->

 <g>
  <title>background</title>
  <rect fill="#fff" id="canvas_background" height="102" width="102" y="-1" x="-1"/>
  <g display="none" overflow="visible" y="0" x="0" height="100%" width="100%" id="canvasGrid">
   <rect fill="url(#gridpattern)" stroke-width="0" y="0" x="0" height="100%" width="100%"/>
  </g>
 </g>
 <g>
  <title>Layer 1</title>
  <g id="svg_10">
   <g transform="matrix(0.7901234685638805,0,0,0.7901234685638805,0,0) " id="svg_4">
    <path id="svg_6" fill-rule="nonzero" fill="rgb(0.392157%,0.392157%,0.392157%)" d="m120.534058,115.432348c0,0.49609 0,0.99218 0,1.49218c0.08593,3.3125 -0.82032,4.13282 -4.07032,3.89844c-1.49609,-0.11719 -2.98828,0.08594 -4.51172,0.08594c-13.97656,0.03125 -27.98046,0.05859 -41.95312,0.05859c-18.22266,0 -36.47656,-0.02734 -54.69922,-0.02734c-1.60937,0 -3.22266,-0.29688 -4.86328,-0.03125c-1.60938,0.23437 -2.69531,-1.11328 -2.78125,-2.8125c-0.46875,-7.94141 1.75781,-15.17578 6.29687,-21.59375c2.8125,-3.95313 6.65235,-7.03125 11.22266,-8.84375c5.00781,-1.9961 10.10547,-3.66406 15.17578,-5.51172c1.19922,-0.4375 1.90235,0.17578 2.63672,0.87891c2.48828,2.49218 5.21484,4.63281 8.28906,6.41796c4.54297,2.63672 9.40625,3.45704 14.5625,3.22266c7.32422,-0.35156 13.30078,-3.60547 18.3086,-8.70312c1.55468,-1.57813 2.72656,-2.16407 5.1289,-1.23047c4.51172,1.75781 9.28516,2.98828 13.73828,4.95312c4.77735,2.10938 8.90625,5.27344 11.83594,9.78516c2.28516,3.54297 4.04297,7.32422 5.03906,11.45312c0.46875,2.17188 0.46875,4.33594 0.64454,6.50782zm0,0"/>
    <path id="svg_7" fill-rule="nonzero" fill="rgb(0%,0%,0%)" d="m56.901238,50.276098c-1.4375,-0.0586 -2.87109,-0.11719 -4.27734,0.05468c-1.34766,0.17969 -2.66797,0.9375 -2.57813,2.46094c0.0586,1.32031 1.26172,2.375 2.54688,2.28906c1.49609,-0.11718 2.93359,-0.53125 4.30859,0.17188c1.4336,-0.28906 2.42969,-0.99219 2.72657,-2.34375c0.17187,-1.02344 -1.40625,-2.57813 -2.72657,-2.63281zm0,0"/>
    <path id="svg_8" fill-rule="nonzero" fill="rgb(0%,0%,0%)" d="m75.534058,50.276098c-1.4375,-0.0586 -2.8711,-0.11719 -4.27735,0.05468c-1.34765,0.17969 -2.66797,0.9375 -2.57812,2.46094c0.05859,1.32031 1.25781,2.375 2.54687,2.28906c1.4961,-0.11718 2.92969,-0.53125 4.3086,0.17188c1.43359,-0.28906 2.42968,-0.99219 2.72265,-2.34375c0.17578,-1.02344 -1.40234,-2.57813 -2.72265,-2.63281zm0,0"/>
    <path id="svg_9" fill-rule="nonzero" fill="rgb(0%,0%,0%)" d="m96.862178,43.127658c0.58594,-3.75 -0.58594,-7.29688 -1.17187,-10.89844c-1.67188,-6.39062 -5.30469,-11.51562 -10.13672,-15.94141c-4.83203,-4.42187 -10.63672,-7 -16.96485,-7.85156c-9.05078,-1.19922 -17.39843,1.08594 -24.69531,6.76953c-8.90625,6.94532 -12.65625,16.19922 -12.45312,27.2461c0.05859,2.78515 0.46875,5.47656 0.11718,8.34765c-0.70312,5.57032 0.20703,10.8125 5.91797,13.80078c0.70703,0.37891 1.05469,0.9961 1.32031,1.75782c1.02344,3.10547 2.40235,6.03515 4.2461,8.75781c3.6914,6.03516 8.82031,10.19922 15.73437,12.04297c7.67578,2.07812 14.21094,-0.26563 20.21485,-4.92188c2.90234,-2.25781 5.1289,-5.07031 6.9414,-8.23437c1.23438,-2.22656 2.49219,-4.48047 3.19532,-6.94141c0.41015,-1.46484 1.14062,-2.43359 2.51953,-2.98828c1.26172,-0.5 2.19922,-1.375 2.92968,-2.49219c0.11719,-0.14453 0.23438,-0.26172 0.35157,-0.41015c1.58203,-3.60157 2.48828,-7.29297 1.58203,-11.25c-0.35156,-1.55078 -0.58594,-3.04688 -0.08985,-4.59766c0.20704,-0.70312 0.32422,-1.46484 0.44141,-2.19531zm-4.33594,10.48437c-0.14843,1.11719 -0.23437,2.25782 -0.5,3.34375c-0.32031,1.46094 -1.17187,2.42969 -2.8125,2.57813c-2.16406,0.17187 -2.8125,0.99219 -3.36718,3.07422c-2.28516,8.49609 -6.67969,15.29297 -14.88282,19.36328c-4.01562,1.99219 -8.14453,2.10937 -12.01172,0.85156c-4.16015,-1.375 -8,-3.83984 -10.60546,-7.70703c-0.52735,-0.78906 -1.11329,-1.49219 -1.67188,-2.25391c-1.90234,-3.36718 -3.89453,-6.64843 -4.59766,-10.54687c-0.32421,-1.81641 -1.17187,-2.57813 -2.98828,-2.84375c-2.37109,-0.35156 -2.92968,-0.96485 -3.10547,-3.36719c-0.08984,-1.11328 -0.20312,-2.22656 -0.32031,-3.33984c-0.23828,-2.28516 0.84766,-3.28125 3.13281,-2.8125c3.28125,0.64453 4.19141,-0.35157 3.86719,-3.63282c-0.26172,-2.49218 -0.20703,-5.01171 0,-7.5c0.17578,-2.16796 0.9375,-2.95703 3.07422,-2.8125c2.05469,0.14454 3.92969,-0.41015 5.85938,-0.79296c0.70312,-0.4375 1.61328,-0.52344 2.19921,-1.19922c1.26172,-0.58594 2.40235,-1.17188 3.04688,-2.57813c0.44141,-0.96484 1.37891,-0.96484 2.19922,-0.23437c0.64062,0.58593 1.25781,1.23047 1.90234,1.8164c4.04297,2.89844 8.61328,4.71485 13.26953,6.24219c2.05469,0.67188 4.28125,0.99219 6.44532,1.10938c1.64062,0.08984 2.375,0.82031 2.78515,2.22656c0.55469,1.84765 0.87891,3.78125 1.69922,5.57031c0.82031,1.72656 1.99219,2.34375 3.89844,2.04688c2.86719,-0.46875 3.86719,0.61718 3.48437,3.39843zm0,0"/>
   </g>
  </g>
 </g>
</svg>